<svg width="64" height="64" viewBox="0 0 64 64" fill="none" xmlns="http://www.w3.org/2000/svg">
<path d="M46.9315 37.9303C46.4806 37.9303 46.1144 37.564 46.1144 37.1144C46.1144 36.6647 46.4806 36.2985 46.9315 36.2985C47.38 36.2985 47.7462 36.6647 47.7462 37.1144C47.7462 37.564 47.38 37.9303 46.9315 37.9303ZM46.9315 33.8993C45.1564 33.8993 43.7165 35.3405 43.7165 37.1144C43.7165 37.7085 43.917 38.2355 44.1985 38.7113C44.1176 38.8259 44.0466 38.9206 43.9569 39.0476C43.5433 39.6916 42.9703 40.2447 42.3188 40.9136C41.995 41.2512 41.6487 41.6112 41.2812 41.9886C40.8589 42.3287 40.4142 42.6862 39.9521 43.0611C39.0627 43.8683 37.9378 44.5136 36.7669 45.2435C35.601 45.9772 34.232 46.5091 32.8618 47.1357C31.4205 47.5742 29.9631 48.202 28.3774 48.4387C27.5951 48.5819 26.8141 48.7974 26.0094 48.8871L23.5804 49.0951C22.7669 49.2047 22.0071 49.1587 21.1426 49.135C20.323 49.0864 19.4634 49.1474 18.6862 49.0092C17.1067 48.8124 15.5421 48.6106 14.0548 48.1758C12.5351 47.8781 11.1798 47.2316 9.83449 46.7819C8.58509 46.1317 7.32075 45.6334 6.29806 44.9321C5.26043 44.2508 4.27012 43.674 3.52646 42.9864C2.76038 42.3324 2.03167 41.818 1.56081 41.2574C0.651479 40.2958 0.0946702 39.7103 0 39.6094C0.0871963 39.7153 0.61411 40.3332 1.47113 41.3434C1.91333 41.9351 2.6134 42.4857 3.35581 43.1895C4.07456 43.9269 5.03496 44.5622 6.05142 45.3108C7.05667 46.0806 8.30731 46.6561 9.55546 47.3873C10.8983 47.9242 12.2598 48.6591 13.8032 49.049C15.2992 49.5797 16.926 49.8849 18.594 50.1776C19.4273 50.362 20.2395 50.3445 21.0728 50.4367C21.8676 50.504 22.7682 50.6011 23.6177 50.5351L26.1763 50.4529C27.0246 50.4043 27.8604 50.2262 28.695 50.1178C30.3804 49.9521 31.9562 49.3854 33.5245 48.993C35.0218 48.4088 36.519 47.9055 37.822 47.188C39.1262 46.473 40.3881 45.829 41.4107 45.0056C41.9426 44.6207 42.4496 44.2508 42.9317 43.902C43.3926 43.5071 43.8086 43.0935 44.211 42.7211C45.0157 41.9675 45.727 41.3035 46.138 40.7293C46.2863 40.5524 46.4046 40.4054 46.5317 40.2509C46.6662 40.2696 46.7883 40.3307 46.9315 40.3307C48.7016 40.3307 50.1478 38.8882 50.1478 37.1144C50.1478 35.3405 48.7016 33.8993 46.9315 33.8993Z" fill="#7D9BC0"/>
<path d="M53.8025 36.5056C53.3478 36.5056 52.9803 36.1369 52.9803 35.6872C52.9803 35.2388 53.3478 34.8726 53.8025 34.8726C54.2509 34.8726 54.6184 35.2388 54.6184 35.6872C54.6184 36.1369 54.2509 36.5056 53.8025 36.5056ZM53.8025 32.4722C52.0262 32.4722 50.58 33.9146 50.58 35.6872C50.58 36.4147 50.869 37.0562 51.2763 37.5931C51.0944 37.892 50.8864 38.2296 50.641 38.6257C50.2337 39.3906 49.6208 40.0856 48.9407 40.9103C48.5931 41.3251 48.2493 41.781 47.847 42.2369C47.3948 42.6654 46.919 43.1151 46.4207 43.5835C45.4802 44.5862 44.2483 45.4245 42.9814 46.3625C41.7158 47.3042 40.2061 48.0355 38.6988 48.875C37.0895 49.5066 35.4888 50.3486 33.705 50.761C32.8218 50.9964 31.9499 51.3128 31.0405 51.4859L28.2938 51.9418C27.3758 52.1387 26.5013 52.1536 25.521 52.2084C24.5843 52.2246 23.6164 52.3704 22.7183 52.2856C20.8984 52.2047 19.0984 52.1113 17.3669 51.75C15.613 51.5495 14.0111 50.9353 12.4428 50.5455C10.9617 49.9189 9.47814 49.4692 8.24992 48.7629C7.01173 48.0828 5.83458 47.516 4.92649 46.801C3.99723 46.1234 3.12029 45.6077 2.53856 45.011C1.41373 43.9995 0.726123 43.3842 0.614014 43.2845C0.728614 43.3966 1.38259 44.0456 2.45635 45.1044C3.01565 45.731 3.86394 46.2903 4.77328 47.0165C5.6577 47.7838 6.81492 48.4091 8.0394 49.159C9.25143 49.9326 10.7288 50.4645 12.2149 51.1745C13.7856 51.6516 15.4037 52.3517 17.19 52.6444C18.9364 53.0966 20.8062 53.2872 22.7208 53.4566C23.6824 53.5874 24.6079 53.484 25.5559 53.5101C26.4702 53.5076 27.4979 53.5301 28.4508 53.3731L31.337 53.033C32.2924 52.8973 33.2204 52.612 34.1534 52.409C36.0481 52.0577 37.7733 51.2642 39.5098 50.6688C41.1441 49.8641 42.7896 49.1516 44.191 48.2136C45.5961 47.2781 46.9613 46.4298 48.0363 45.4009C48.5956 44.9151 49.1362 44.4492 49.6445 44.0095C50.1253 43.5187 50.555 43.0142 50.9736 42.5558C51.8057 41.634 52.5419 40.8193 52.9567 40.1255C53.2943 39.6272 53.5633 39.2373 53.7863 38.9023C53.795 38.9023 53.7963 38.9035 53.8025 38.9035C55.5763 38.9035 57.0188 37.4623 57.0188 35.6872C57.0188 33.9146 55.5763 32.4722 53.8025 32.4722Z" fill="#5FB4E5"/>
<path d="M60.7837 35.649C60.334 35.649 59.9665 35.2828 59.9665 34.8331C59.9665 34.3821 60.334 34.0172 60.7837 34.0172C61.2334 34.0172 61.6008 34.3821 61.6008 34.8331C61.6008 35.2828 61.2334 35.649 60.7837 35.649ZM60.7837 31.6143C59.0111 31.6143 57.5661 33.0605 57.5661 34.8331C57.5661 35.6191 57.8838 36.3167 58.3534 36.8735C58.169 37.2335 57.9585 37.6395 57.7057 38.1303C57.3158 39.0098 56.6942 39.8369 55.9979 40.8147C55.6478 41.3068 55.3003 41.8449 54.8867 42.388C54.4196 42.9037 53.9276 43.4431 53.4156 44.0074C52.4452 45.1995 51.1473 46.2371 49.8144 47.3844C49.1766 47.9947 48.4006 48.4668 47.6332 48.985C46.8547 49.4858 46.0936 50.0588 45.2578 50.5359C43.5226 51.368 41.8135 52.4405 39.8628 53.0471C38.9049 53.376 37.9619 53.8008 36.9666 54.0698L33.9497 54.8048C32.9481 55.0987 31.9666 55.1909 30.8916 55.3279C29.8539 55.4263 28.7964 55.6692 27.7886 55.6493C26.7697 55.6692 25.7619 55.6879 24.7654 55.7066C23.7651 55.7278 22.7761 55.5596 21.802 55.4973C19.8363 55.4214 18.0102 54.8745 16.2351 54.5706C14.536 53.9963 12.8569 53.6201 11.4356 52.9375C10.0068 52.286 8.65278 51.7554 7.58649 51.0379C6.50027 50.3627 5.48257 49.8607 4.78874 49.2479C3.46709 48.2264 2.65492 47.5999 2.51416 47.4915C2.64994 47.6073 3.43595 48.2688 4.71524 49.3475C5.39039 49.9953 6.38069 50.5371 7.45196 51.2621C8.49832 52.0357 9.83491 52.6261 11.255 53.3498C12.6675 54.0997 14.3492 54.5581 16.0545 55.2133C17.8408 55.602 19.6893 56.2373 21.6911 56.4029C22.6876 56.5076 23.6904 56.7218 24.7268 56.7455C25.7669 56.7692 26.8232 56.7928 27.8833 56.8153C28.957 56.875 29.9748 56.6832 31.0286 56.6234C32.0463 56.54 33.1749 56.4777 34.22 56.2198L37.3815 55.5908C38.4253 55.3541 39.4218 54.9605 40.4408 54.6515C42.5011 54.1034 44.341 53.0683 46.2032 52.2611C47.1063 51.7965 47.9359 51.2322 48.7768 50.7352C49.6126 50.2232 50.4584 49.7524 51.1647 49.137C52.6321 47.981 54.0658 46.9235 55.162 45.6927C55.7375 45.1085 56.2918 44.5492 56.82 44.0186C57.3033 43.4356 57.7331 42.8414 58.1529 42.3008C58.9862 41.2121 59.7299 40.2554 60.126 39.4482C60.4598 38.8628 60.7214 38.4069 60.9456 38.0182C62.6397 37.9285 64 36.5508 64 34.8331C64 33.0605 62.5588 31.6143 60.7837 31.6143Z" fill="#009BDF"/>
<path d="M34.5435 11.4212C34.5136 11.5931 34.348 11.7102 34.1748 11.6803C33.9992 11.6491 33.8846 11.4847 33.9157 11.3115C33.9456 11.1371 34.11 11.0213 34.2844 11.0512C34.4576 11.0811 34.5747 11.2455 34.5435 11.4212ZM33.1322 11.1745C33.1023 11.3489 32.9366 11.4648 32.7622 11.4349L27.0621 10.4433C26.889 10.4122 26.7719 10.2477 26.8005 10.0746C26.8292 9.91764 26.9649 9.80803 27.1169 9.80803C27.1356 9.80803 27.153 9.81052 27.1717 9.81301L32.8731 10.8058C33.0463 10.8357 33.1621 11.0014 33.1322 11.1745ZM38.3266 9.6573L23.441 7.0738C20.7304 6.60419 18.1407 8.42908 17.6711 11.1434L11.7592 45.2085C12.3459 45.424 12.9438 45.627 13.5741 45.7827L19.5271 11.466C19.8223 9.77564 21.4292 8.64084 23.1183 8.93482L24.6916 9.20762L24.6443 9.46173C24.496 10.3225 25.079 11.1396 25.9398 11.2904L34.556 12.7852C35.4167 12.9321 36.2376 12.3591 36.3846 11.4984L36.4332 11.243L38.0027 11.5183C39.6919 11.8086 40.8254 13.418 40.5327 15.1083L35.5874 43.6103C35.9985 43.4122 36.3933 43.1955 36.767 42.9613C37.0909 42.762 37.4048 42.5664 37.715 42.3709L42.3912 15.4309C42.8608 12.7166 41.0409 10.1269 38.3266 9.6573Z" fill="#009BDF"/>
</svg>
