<svg xmlns="http://www.w3.org/2000/svg" width="260" height="100" fill="none" xmlns:v="https://vecta.io/nano"><path fill-rule="evenodd" d="M156.656 72.471h6.987V51.315c0-11.679-9.477-21.156-21.156-21.156s-21.156 9.476-21.156 21.155 9.477 21.156 21.156 21.156c5.456 0 10.34-2.106 14.169-5.457v5.457zm-42.121-21.636c0-15.412 12.54-28.049 28.048-28.049 15.413 0 27.953 12.636 27.953 28.049V83l-14.263-5.933-1.914-.767c-3.543 1.627-7.562 2.583-11.776 2.583a28.03 28.03 0 0 1-28.048-28.049zm-105.206.29c0 9.093 7.37 16.56 16.463 16.56a16.57 16.57 0 0 0 16.563-16.56 16.57 16.57 0 0 0-16.563-16.562c-9.093 0-16.463 7.466-16.463 16.562zm-8.329 0c0-13.689 11.106-24.795 24.792-24.795 13.786 0 24.891 11.106 24.891 24.795v24.793h-8.328v-6.316c-4.404 3.923-10.146 6.316-16.563 6.316C12.106 75.918 1 64.814 1 51.125zm64.521 24.793h-8.233V18h8.233v57.918zm192.704 0h-8.233V18h8.233v57.918zM80.457 51.125c0 9.093 7.37 16.56 16.465 16.56 4.593 0 8.71-1.913 11.773-4.883l5.84 5.839c-4.5 4.501-10.723 7.277-17.613 7.277-13.689 0-24.795-11.104-24.795-24.793S83.233 26.33 96.922 26.33c3.27-.008 6.51.631 9.533 1.879s5.768 3.082 8.08 5.396l-5.84 5.839c-3.063-2.969-7.18-4.882-11.773-4.882-9.096 0-16.465 7.466-16.465 16.562zM185.471 18v8.329l8.231.001v8.233h-8.231v41.355h-8.232V18h8.232zm49.108 29.008c-1.913-7.18-8.329-12.446-16.083-12.446-7.66 0-14.072 5.266-15.985 12.446h32.068zm-9.163 19.151c2.167-1.009 4.085-2.482 5.62-4.314h9.86c-4.02 8.329-12.54 14.073-22.399 14.073-13.69 0-24.795-11.104-24.795-24.793s11.106-24.795 24.795-24.795c13.786 0 24.888 11.107 24.888 24.796 0 1.433-.189 2.773-.383 4.116H202.51c1.914 7.18 8.327 12.442 15.987 12.442 2.39.005 4.752-.516 6.919-1.525zm-97.288-14.844c0-7.946 6.416-14.359 14.359-14.359s14.36 6.414 14.36 14.359-6.414 14.359-14.36 14.359-14.359-6.413-14.359-14.359z" fill="#334155"/></svg>