<svg xmlns="http://www.w3.org/2000/svg" width="131" height="160" fill="none" xmlns:v="https://vecta.io/nano"><path fill-rule="evenodd" d="M77.447 7.663C82.581 3.685 89.086.829 94.571.115c.431-.045 1.201-.102 1.7-.113.771-.011.975.023 1.224.227.465.363.51.544.635 2.312.499 6.993-1.915 15.175-6.471 21.873-5.327 7.854-13.453 13.147-21.975 14.348-1.451.204-4.624.193-5.032-.011-.567-.295-.748-.657-.873-1.813-.159-1.371-.057-5.021.181-6.517 1.36-8.636 6.551-17.385 13.487-22.757zm-2.43 35.052c7.707-3.026 11.095-4.023 15.527-4.601 1.553-.193 6.63-.125 8.67.113 8.5 1.031 15.719 4.205 21.545 9.452 2.584 2.323 5.938 6.426 5.938 7.242 0 .544-.34.929-1.609 1.802-1.881 1.281-3.241 2.403-5.009 4.125-2.358 2.289-3.933 4.227-5.486 6.732-2.72 4.375-4.352 9.191-4.794 14.121-.272 3.151.012 7.593.692 10.665 1.008 4.545 3.037 8.862 5.995 12.738 1.088 1.428 4.125 4.5 5.621 5.678 2.233 1.768 4.828 3.389 7.129 4.455.646.306 1.258.668 1.36.816.295.43.215.986-.431 2.89-2.051 6.04-5.36 12.965-8.794 18.405-1.644 2.618-5.293 7.797-7.254 10.313-6.131 7.877-11.934 11.651-18.62 12.116-3.989.272-7.627-.42-12.206-2.346-5.429-2.278-6.392-2.63-8.557-3.14-2.063-.487-3.672-.657-6.233-.657-4.828 0-7.673.646-13.645 3.139-6.324 2.641-9.282 3.355-13.328 3.208-3.196-.114-5.825-.952-8.84-2.8-4.749-2.912-10.189-9.021-16.66-18.7C7.821 126.208 2.109 110.421.454 95.472c-.68-6.12-.589-13.351.227-18.745.884-5.837 2.652-11.503 4.987-15.991 2.221-4.25 4.409-7.253 7.695-10.551 3.185-3.185 6.12-5.372 10.007-7.412 7.253-3.819 16.048-5.27 22.939-3.785 2.981.635 5.417 1.428 10.551 3.434 5.893 2.301 7.106 2.663 9.101 2.765 1.995.091 3.785-.397 9.055-2.471z" fill="#334155"/></svg>