<svg xmlns="http://www.w3.org/2000/svg" width="697" height="160" fill="none" xmlns:v="https://vecta.io/nano"><path fill-rule="evenodd" d="M171.301 28.187s17.52 16.912 16.4 35.189c-.52 13.154-10.24 21.353-10.23 21.343-15.54 15.558-52.44 35.515-61.32 40.134a.81.81 0 0 1-.91-.094c-.28-.242-.23-.724-.11-1.008 23.69-54.243 56.17-95.564 56.17-95.564zm-45.57-26.172c16.49 4.21 20.55 20.135 20.55 20.135 2.721 7.95.166 19.501-.081 20.615l-.019.087c-5.46 25.489-32.4 67.408-38.3 76.373-.23.326-.55.452-.89.357-.22-.063-.47-.241-.51-.735C97.531 24.912 115.951.01 115.951.01c5.04.745 9.78 2.005 9.78 2.005zm-4.51 137.125c-.38-.294-.3-.787-.2-.997.13-.263.44-.42.66-.41l62.24 2.279c-13.96 25.174-30.03 19.421-30.03 19.421-8.69-2.572-26.73-15.821-32.67-20.293zm-.91-7.726c27.31-19.338 80.16-49.121 80.16-49.121 4.72 14.96-1.38 27.768-1.38 27.768-6.84 15.694-20.01 20.093-20.01 20.093-5.92 2.383-10.7 2.593-10.7 2.593-.879.169-34.024.131-45.901.117-.688 0-1.304-.001-1.839-.002a.68.68 0 0 1-.65-.514c-.14-.514.12-.798.32-.934zM1.791 82.294s52.84 29.794 80.16 49.121c.19.136.45.42.32.934a.68.68 0 0 1-.65.514c-9.78.021-46.81.063-47.74-.115 0 0-4.79-.21-10.7-2.593 0 0-13.17-4.388-20.01-20.093 0 0-6.1-12.808-1.38-27.768zm16.54 57.708l62.24-2.278c.21 0 .53.157.65.409.1.21.19.714-.19.998-5.95 4.482-23.98 17.731-32.67 20.292 0 0-16.07 5.753-30.03-19.421zm37.65-117.851s4.06-15.926 20.53-20.135c0 0 4.75-1.26 9.8-2.016 0 0 18.42 24.901 9.47 118.838-.04.504-.29.672-.51.735-.34.105-.66-.021-.89-.357-5.89-8.965-32.83-50.884-38.3-76.373 0 0-2.97-12.335-.1-20.692zm-41.42 41.226c-1.12-18.277 16.4-35.189 16.4-35.189s32.48 41.32 56.18 95.575c.12.283.17.766-.11 1.007-.2.168-.56.284-.91.095-8.88-4.619-45.78-24.576-61.32-40.134 0 0-9.73-8.199-10.24-21.353zM541.612 52.7l17.45 55.462 17-55.409h16.16l-26.7 80.604h-13.02l-17.46-52.952-17.47 52.952h-12.9l-26.78-80.604h16.6l16.96 55.409 17.44-55.462h12.72zM291.121 85.244h-35.19V52.711h-15.59v80.646h15.59v-32.744h35.19v32.744h15.59V52.711h-15.59v32.533zm87.8 13.627c0 13.112-6.2 20.114-17.46 20.114-11.33 0-17.56-7.202-17.56-20.671V52.763h-15.58v46.108c0 22.686 12.01 35.693 32.93 35.693 21.13 0 33.26-13.248 33.26-36.354V52.721h-15.59v46.15zm241.24-.22h28.36V83.964h-28.36V67.461h41.15V52.764h-56.52v80.552h58v-14.697h-42.63V98.651zm61.22-45.94h15.37v80.541h-15.37V52.711zm-245.14 0l-33.83 80.604h15.9l7-16.797h35.15l6.9 16.797h16.33l-33.72-80.604h-13.73zm-5.13 49.278l11.75-28.87 11.82 28.87h-23.57z" fill="#334155"/></svg>