<svg xmlns="http://www.w3.org/2000/svg" width="265" height="160" fill="none" xmlns:v="https://vecta.io/nano"><path d="M80.05 0C35.791 0 0 35.891 0 80.05S35.791 160 80.05 160c44.159 0 79.946-35.79 79.946-79.95S124.209 0 80.05 0zM50.611 41.134c5.243 0 9.578 4.335 9.578 9.576 0 5.343-4.335 9.679-9.578 9.679a9.68 9.68 0 0 1-9.678-9.679c0-5.241 4.335-9.576 9.678-9.576zm37.706 77.428H77.027V43.151h7.46v67.85h15.121v7.563l-11.291-.002zm0 23.892c28.329-3.73 50.71-26.415 54.136-54.845H99.609v-7.863h49.704c0 35.386-26.616 64.928-60.995 69.162-2.722.304-5.545.403-8.267.403-10.586 0-20.568-2.321-29.439-6.45C27.02 131.77 10.587 107.776 10.587 80.05s16.433-51.72 40.024-62.81c8.468-3.932 17.946-6.25 27.926-6.553v6.453a62.12 62.12 0 0 0-27.926 7.258C30.65 34.984 17.04 55.954 17.04 80.05s13.61 45.066 33.572 55.651c8.772 4.636 18.753 7.258 29.439 7.258 2.722 0 5.545-.204 8.267-.505zm77.026-32.459V55.147h18.048v42.042h24.701v12.806h-42.749zm99.103.199h-11.692l-.608-5.446c-3.025 3.528-7.967 6.752-16.636 6.752-14.013 0-26.616-9.071-26.616-28.228 0-17.541 10.989-29.538 28.831-29.538 13.208 0 23.795 6.855 26.011 20.366h-17.138c-1.312-4.537-4.536-6.957-9.275-6.957-7.057 0-10.384 6.453-10.384 16.03 0 7.763 2.419 14.922 11.493 14.922 3.63 0 8.368-2.52 9.275-6.352h-7.965V79.946h24.701l.003 30.248z" fill="#334155"/></svg>