<svg xmlns="http://www.w3.org/2000/svg" width="700" height="160" fill="none" xmlns:v="https://vecta.io/nano"><path fill-rule="evenodd" d="M69.722.454C59.83 1.753 49.205 5.25 40.744 10.047 19.327 22.138 5.005 42.622.741 67.237-.058 71.9-.258 84.923.375 89.886c1.166 8.927 3.564 16.954 7.361 24.848 4.03 8.361 8.194 14.323 14.522 20.884 10.525 10.926 23.882 18.686 38.371 22.217C68.157 159.667 70.988 160 80.048 160s11.924-.333 19.419-2.165c11.325-2.765 23.15-8.76 32.01-16.121 3.697-3.098 9.826-9.526 12.69-13.357 7.728-10.259 12.89-22.25 14.956-34.54 5.362-31.709-7.961-62.753-34.574-80.572C114.155 6.283 102.598 2.019 89.874.421c-4.663-.566-15.522-.566-20.151.033zM68.09 59.976l11.958 38.571c.2 0 5.562-17.354 11.958-38.571l11.825-38.97c.2-.333 7.194 22.316 30.21 97.793l.433 1.399h-2.664c-1.832 0-2.698-.133-2.798-.433-.037-.11-.254-.921-.568-2.098l-.004-.013-.002-.007-.002-.008-.001-.005-.002-.006-.005-.02-.915-3.406c-3.564-13.223-8.394-23.315-13.29-27.679-1.032-.933-2.998-2.232-4.33-2.898-2.465-1.199-2.565-1.232-6.495-1.232-3.964 0-4.064.033-6.195 1.166-2.631 1.399-6.595 5.263-8.727 8.494-1.898 2.898-4.996 8.66-6.961 12.891-1.299 2.831-1.499 3.131-1.765 2.498-1.399-3.298-5.796-11.858-7.161-13.89-3.364-5.063-6.861-8.527-10.359-10.259-1.665-.799-2.165-.899-5.496-.866-4.263 0-5.962.533-9.393 2.998-6.195 4.43-11.258 15.055-16.088 33.675l-.366 1.432H28.22c-2.032 0-2.665-.1-2.565-.433.1-.2 6.961-22.716 15.255-49.962l15.322-49.13c.133.233 5.463 17.787 11.858 38.971zm305.577-2.297l.367 33.541c.699 5.829 3.264 11.192 7.394 15.522 5.196 5.496 11.225 8.16 19.652 8.66l3.564.233v-6.861-6.895h-2.265c-4.197 0-7.661-1.299-10.459-3.931-1.965-1.832-3.131-3.697-3.963-6.428-.567-1.865-.633-3.264-.633-17.653V58.245h8.493 8.494v-6.828-6.828h-8.494-8.493v-8.827-8.827h-6.828-6.829v30.743zm233.142 56.856v-43.8-43.8h6.828 6.828v43.8 43.8h-6.828-6.828zm-394.862-69.58c-8.86 1.299-16.954 7.361-20.751 15.621l-.152.325-.148.317-.005.01c-.444.948-.8 1.707-1.086 2.492-1.154 3.167-1.171 6.748-1.261 24.775l-.013 2.624-.1 23.415h6.862 6.828V92.052c0-21.75.033-22.583.666-24.515 3.397-10.092 15.455-13.19 23.083-5.995.999.933 2.198 2.465 2.731 3.397l.023.042c.267.496.495.919.689 1.357 1.12 2.522 1.12 5.541 1.12 25.947v22.249h6.828 6.828V91.952v-1.944h0c-.001-18.856-.002-21.929 1.272-24.326.248-.466.544-.907.897-1.434h0 0 .001 0l.228-.341c3.831-5.729 11.292-7.894 17.42-5.03 2.565 1.199 5.396 3.73 6.596 5.962 1.898 3.464 1.898 3.597 1.898 27.612v22.083h6.662 6.695l-.1-23.915-.1-23.882-.8-2.332c-3.564-10.592-12.057-17.953-22.516-19.485-8.494-1.199-17.154 1.532-23.349 7.394l-1.799 1.699-2.165-2.032c-6.028-5.662-14.522-8.26-22.982-7.028zm82.547 36.739c-.966-18.086 12.257-34.141 30.377-36.739 8.56-1.232 17.686.933 25.181 5.996 2.731 1.832 7.094 6.195 8.96 8.927 1.898 2.831 4.13 7.627 4.963 10.659 2.031 7.394 1.565 15.688-1.299 22.783-7.628 18.752-29.478 27.28-47.831 18.719-4.13-1.932-6.795-3.764-9.992-6.962-6.262-6.228-9.86-14.356-10.359-23.382zm50.861-16.787c-2.898-2.931-5.162-4.363-8.893-5.696-2.531-.899-8.76-1.166-11.458-.466-7.528 1.899-13.257 7.195-15.821 14.656-.8 2.298-.933 3.164-.933 6.495 0 4.297.466 6.362 2.298 9.992 4.397 8.727 14.456 13.556 23.916 11.458 6.361-1.399 12.09-5.829 14.822-11.458 1.798-3.697 2.398-6.129 2.398-9.826 0-6.229-1.865-10.725-6.329-15.155zm94.255-19.954c-3.331.433-7.694 1.799-10.959 3.431-13.156 6.628-20.584 20.052-19.285 34.94 1.232 14.456 11.258 26.614 25.381 30.677 14.722 4.264 30.81-1.599 39.27-14.356 6.995-10.525 7.828-24.248 2.132-35.573-3.264-6.528-9.36-12.557-16.121-15.955-5.696-2.831-13.523-4.063-20.418-3.164zm11.924 14.456c1.332.466 2.998 1.199 3.664 1.599 6.928 3.964 11.125 11.125 11.125 19.052 0 6.062-1.965 10.758-6.395 15.188-2.332 2.332-3.398 3.131-5.729 4.264-7.828 3.797-16.055 2.931-23.149-2.431-3.798-2.898-6.862-7.861-7.894-12.924-.633-3.131-.667-4.63-.034-8.061 1.466-8.26 8.061-15.222 16.454-17.354 3.032-.799 8.927-.466 11.958.666zm37.566 7.23c2.232-10.925 11.059-19.552 22.017-21.517 1.432-.267 4.597-.5 7.028-.5l4.397-.033v6.828 6.828h-4.33c-3.531 0-4.73.133-6.395.699-5.063 1.699-8.727 6.029-9.56 11.325-.233 1.299-.366 10.192-.366 23.183v21.084h-6.662-6.662V91.886c0-19.385.067-23.049.533-25.248zm68.758-21.718c-9.127 1.299-17.787 6.362-23.349 13.756-11.658 15.422-8.66 37.805 6.628 49.363 13.923 10.525 33.242 9.592 45.832-2.199 4.364-4.063 7.395-8.826 9.326-14.622 3.531-10.659 1.899-22.25-4.496-31.476-2.265-3.297-7.161-7.894-10.592-9.959-3.098-1.865-7.561-3.631-11.092-4.397-2.964-.633-9.326-.866-12.257-.466zm10.125 13.989c4.097 1.033 6.962 2.698 10.193 5.962 2.864 2.898 4.163 4.963 5.496 8.86.866 2.465 1.065 8.427.366 11.158-2.065 8.294-8.693 14.722-16.987 16.521-9.36 1.999-19.386-2.897-23.682-11.624-1.932-3.864-2.632-7.095-2.398-10.892.599-9.693 7.427-17.853 16.853-20.151 2.798-.666 7.162-.6 10.159.166zm89.798-13.655c1.365-.2 2.731-.433 2.998-.5s2.364-.067 4.663 0c5.429.2 9.592 1.232 14.489 3.631 9.259 4.563 15.655 12.424 18.586 22.783.699 2.465.732 3.231.832 22.949l.1 20.417h-6.328-6.329l-.1-3.497-.1-3.497-2.165 1.532c-12.49 8.727-29.844 8.327-41.901-.966-13.557-10.492-17.62-28.878-9.826-44.366 4.863-9.593 14.555-16.754 25.081-18.486zm28.212 33.641c-.566-8.96-6.329-16.521-14.956-19.552-3.364-1.199-8.693-1.399-12.19-.433-4.031 1.066-6.862 2.764-10.059 5.962-4.464 4.463-6.329 8.96-6.329 15.189 0 3.697.6 6.162 2.398 9.826 3.464 7.095 11.458 12.025 19.486 11.991 6.295-.033 13.323-3.53 17.087-8.527 3.231-4.263 4.863-9.493 4.563-14.456z" fill="#334155"/></svg>