<svg xmlns="http://www.w3.org/2000/svg" width="275" height="100" fill="none" xmlns:v="https://vecta.io/nano"><path fill-rule="evenodd" d="M262.467 81.333h11.016l-6.977-12.996-5.208-9.707-16.3-30.367L239.49 18l-5.508 10.263 5.508 10.263 10.792 20.105h-32.6l-5.208 9.707-6.977 12.996h11.015l6.977-12.996h32.001l6.977 12.996zM59.248 69.967V83L11.707 40.371v40.637H2V18.633l9.707 8.702 47.541 42.633zm119.77 11.366H164.48l-26.494-23.76-7.269-6.516 7.269-6.517 25.931-23.255h14.538l-33.2 29.772 33.763 30.276zm19.897-60.048h-9.707v59.964h9.707V21.286zM62.453 51.145c0-16.947 13.957-30.682 31.175-30.682s31.175 13.735 31.175 30.682-13.957 30.682-31.175 30.682-31.175-13.735-31.175-30.682zm8.801-.004c0 12.54 10.018 22.703 22.374 22.703s22.375-10.16 22.375-22.7-10.022-22.703-22.375-22.703-22.374 10.16-22.374 22.7z" fill="#334155"/></svg>