<svg xmlns="http://www.w3.org/2000/svg" width="169" height="160" fill="none" xmlns:v="https://vecta.io/nano"><path d="M56.769.115c-2.802.212-7.057.924-10.222 1.711-3.907.984-10.131 3.347-13.023 4.937-2.983 1.651-3.877 2.181-5.376 3.165a57.33 57.33 0 0 0-10.449 8.602c-3.044 3.135-4.679 5.088-6.678 7.996-5.8 8.42-9.192 17.294-10.616 27.788C.071 56.782.071 57.04.011 78.695l.121 23.851c.606 7.299 2.09 13.432 4.725 19.687 3.226 7.602 7.86 14.386 13.841 20.217 2.014 1.968 2.514 2.407 5.331 4.649 3.968 3.149 9.51 6.36 14.417 8.344 5.209 2.105 10.161 3.377 16.809 4.285 1.863.273 51.715.379 55.501.137 9.677-.621 19.384-3.65 27.561-8.587 3.711-2.241 8.36-5.648 8.163-5.981-.061-.107-.03-.122.06-.061.197.121.924-.5 3.332-2.847 10.449-10.161 16.87-23.533 18.4-38.329.272-2.65.257-45.915-.016-48.383-1.151-10.388-4.558-19.853-10.191-28.273-2.075-3.104-4.907-6.633-5.179-6.451-.091.046-.106.015-.046-.076.258-.424-5.648-5.997-9.025-8.541-1.666-1.257-5.164-3.604-5.361-3.604-.046 0-.273-.121-.485-.288-.227-.151-.954-.56-1.62-.924a26.46 26.46 0 0 1-1.363-.757c-.076-.061-1.03-.515-2.12-1.015-6.118-2.847-12.418-4.619-19.611-5.512-1.727-.227-53.699-.333-56.486-.121zm80.413 80.019v38.994h-9.011-9.01V80.134 41.139h9.01 9.011v38.995zM95.446 42.396c5.694 1.59 9.843 5.421 11.6 10.676.954 2.877.909.909.909 34.967v31.09h-8.859-8.859v-26.88c0-29.924.061-28.122-1.03-30.363-.757-1.545-2.559-3.362-4.028-4.074-1.984-.939-1.408-.924-19.656-.924H48.895v31.12 31.12h-9.238-9.238v-38.51l.106-38.631c.061-.045 14.356-.076 31.756-.061l31.665.045 1.499.424zM69.535 68.534l8.587.015v25.29 25.29l-9.041-.03-9.056-.045-.045-25.139.03-25.305c.03-.091.257-.151.5-.121.227.015 4.286.03 9.026.046z" fill="#334155"/></svg>